# xmcd
#
# Track frame offsets: 
#        150
#        13476
#        27845
#        41305
#        56994
#        69022
#        81966
#        93973
#        105597
#        119066
#        130052
#        143623
#        154485
#        166580
#        179652
#        193349
#        204655
#        219451
#        235086
#        247302
#        260832
#        276444
#        288193
#        302330
#
# Disc length: 4216 seconds
#
# Revision: 0
# Processed by: cddbd v1.5.2PL0 Copyright (c) Steve Scherf et al.
# Submitted via: ExactAudioCopy v0.95b4
#
DISCID=67107618
DTITLE=Various Artist - Battle Of Hastings Street
DYEAR=2006
DGENRE=Blues
TTITLE0=Joe Weaver and His Blue Notes - I Got The Blues For My Baby
TTITLE1=Eddie Burns - Hello Miss Jessie Lee
TTITLE2=Johnny Wright - I Stayed Down
TTITLE3=Howard Richard - Lover Blues
TTITLE4=Joe Weaver and His Blues Notes - JB Boogie
TTITLE5=Eddie Kirkland - Time For My Lovin' To Be done
TTITLE6=James Walton - If You Don't Believe I'm Leaving
TTITLE7=Johnny Wright - Booge Baby
TTITLE8=Eddie Burns - Dealing With The Devil
TTITLE9=Joe Weaver and His Blue Notes - Baby I'm In Love With You
TTITLE10=James Walton - Eva Lee
TTITLE11=Johnny Wright - '54 Blues
TTITLE12=Eddie Kirkland - Please Don't Think I'm Nosey
TTITLE13=Robert Richard - Ne York Central
TTITLE14=Johnny Wright - I Was In St Louis
TTITLE15=Eddie Kirkland - I Mistreated A Woman
TTITLE16=Jonny Wright - She Went Away
TTITLE17=Robert Richard - Wigwam Woman
TTITLE18=Eddie Kirkland - No Shoes
TTITLE19=Joe Weaver and His Blue Notes - I'm So Lonesome
TTITLE20=Howard Richard - Streamline #99
TTITLE21=Joe Weaver and His Blue Notes - Soft Pillow
TTITLE22=Johhny Howard - Vacation Blues
TTITLE23=Johnny Wright - Up Boy
EXTD=
EXTT0=
EXTT1=
EXTT2=
EXTT3=
EXTT4=
EXTT5=
EXTT6=
EXTT7=
EXTT8=
EXTT9=
EXTT10=
EXTT11=
EXTT12=
EXTT13=
EXTT14=
EXTT15=
EXTT16=
EXTT17=
EXTT18=
EXTT19=
EXTT20=
EXTT21=
EXTT22=
EXTT23=
PLAYORDER=
